<?xml version="1.0"?>
<svg xmlns="http://www.w3.org/2000/svg" xmlns:xlink="http://www.w3.org/1999/xlink" id="Layer_1" data-name="Layer 1" viewBox="0 0 512 512"><defs><linearGradient id="linear-gradient" x1="256" y1="18" x2="256" y2="492.152" gradientUnits="userSpaceOnUse"><stop offset="0" stop-color="#00efd1"/><stop offset="1" stop-color="#00acea"/></linearGradient></defs><title>Delete</title><path d="M343.729,248,457.522,134.052a8,8,0,0,0,2.226-4.31L475.393,37.9a8,8,0,0,0-9.231-9.23L374.319,44.313a8,8,0,0,0-4.309,2.226L256,160.392,141.99,46.54a8,8,0,0,0-4.309-2.226L45.838,28.669a8,8,0,0,0-9.231,9.23l15.645,91.843a8,8,0,0,0,2.226,4.31L168.27,248,38.867,377.227A61.872,61.872,0,0,0,82.821,483h.016a61.563,61.563,0,0,0,44-18.027L256,335.741,385.164,464.917A61.611,61.611,0,0,0,429.156,483h.023a61.929,61.929,0,0,0,43.955-105.829ZM163.889,405.448l-24.37,24.4L74.211,364.543l24.4-24.369Zm-29.6-52.223,69.645-69.506,16.394,16.416-69.495,69.634ZM71.448,128.4l13.127-13.126L349.85,381.082l-13.044,13.044ZM136.341,63.51,402.064,328.867l-13.043,13.044L123.215,76.636Zm279.77,40.453L307.985,212.305l-16.24-16.217L400.1,87.95ZM111.9,87.95,377.707,353.225l-16.544,16.544L95.889,103.963ZM413.387,340.174l24.4,24.369-65.308,65.308-24.369-24.4Zm-94.08-116.563L427.425,115.276,440.552,128.4,332.408,236.7ZM446.574,111.8,392.265,57.487l65.46-11.15ZM375.659,63.51l13.126,13.126L280.424,184.782l-13.1-13.084ZM54.275,46.337l65.46,11.151L65.426,111.8ZM192.633,272.4l-69.654,69.514-13.043-13.044,69.64-69.544Zm-77.119,181.27A45.666,45.666,0,0,1,82.838,467h-.017a45.929,45.929,0,0,1-32.648-78.508l12.716-12.67,65.324,65.226Zm59.68-59.541L162.15,381.082l69.487-69.626,13.056,13.075ZM461.847,453.69A45.684,45.684,0,0,1,429.179,467h-.018a45.665,45.665,0,0,1-32.675-13.333l-12.7-12.6,65.324-65.268,12.717,12.727a45.965,45.965,0,0,1,.019,65.169Z" style="fill:url(#linear-gradient)"/></svg>
